<?xml version="1.0" encoding="UTF-8" standalone="no"?>
<svg width="946px" height="458px" viewBox="0 0 946 458" version="1.1" xmlns="http://www.w3.org/2000/svg" xmlns:xlink="http://www.w3.org/1999/xlink" xmlns:sketch="http://www.bohemiancoding.com/sketch/ns">
    <!-- Generator: Sketch 3.0.1 (7597) - http://www.bohemiancoding.com/sketch -->
    <title>Group</title>
    <description>Created with Sketch.</description>
    <defs></defs>
    <g id="Page-1" stroke="none" stroke-width="1" fill="none" fill-rule="evenodd" sketch:type="MSPage">
        <g id="Group" sketch:type="MSLayerGroup" transform="translate(0.000000, -31.000000)">
            <path d="M295.334974,716.049052 C272.168755,703.697876 257.594339,668.69764 257.594339,668.69764 L247.38916,616.444345 L239.924404,521.91135 L245.08103,353.193962 L254.463682,205.086084 L271.580072,103.422103 L284.88606,32.4771174 L295.324738,4.24515071 L304.881168,-17.8757208 L320.092356,-46.1875462 L338.889583,-70.9057282 L358.074695,-91.6994235 L382.249077,-114.010435 L409.427669,-133.275406 L443.325804,-156.898382 L453.426033,-165.306367 L486.605439,-204.733768 L494.500046,-180.776146 L500.504663,-166.701993 L523.36708,-151.190383 L547.625123,-133.575827 L573.651468,-116.714224 L601.628647,-94.5249018 L626.940065,-73.2292373 L644.315046,-54.3407435 L662.066503,-31.9080426 L674.532073,-8.36872772 L689.568333,27.3813691 L698.128429,47 L688.568197,47 L712.191174,71.4329722 L706.228388,100.501554 L685.56779,156.73732 L661.526506,230.154123 L623.19431,334.685414 L617.786732,360.377112 L610.85043,390.799489 L603.49582,412.095154 L603.49582,440.787259 L604.982714,470.152459 L606.712987,500.913286 L604.940883,522.80599 L595.220934,555.551877 L573.32823,595.317727 L552.629605,617.586908 L527.017765,644.073391 L494.690186,668.072844 L454.209409,687.341618 L419.216069,702.849425 L376.031504,716.372172 L334.953688,720.129335 L315.509986,723.171573 C315.509986,723.171573 318.501193,728.400228 295.334974,716.049052 Z" id="Path-1" stroke="#00526E" stroke-width="5" sketch:type="MSShapeGroup" transform="translate(476.000000, 259.500000) rotate(-273.000000) translate(-476.000000, -259.500000) "></path>
            <path d="M934.962092,234.958137 L883.027507,241.958137 L840.693422,241.958137 L800.962092,238.879456" id="Path-2" stroke="#00526E" stroke-width="5" sketch:type="MSShapeGroup" transform="translate(867.962092, 238.958137) rotate(-273.000000) translate(-867.962092, -238.958137) "></path>
            <path d="M946.116101,238.839491 L857.749791,245.839491 L785.718661,245.839491 L718.116101,242.76081" id="Path-3" stroke="#00526E" stroke-width="5" sketch:type="MSShapeGroup" transform="translate(832.116101, 242.839491) rotate(-273.000000) translate(-832.116101, -242.839491) "></path>
            <path d="M948.471231,246.401347 L835.300343,253.401347 L743.049948,253.401347 L656.471231,250.322666" id="Path-4" stroke="#00526E" stroke-width="5" sketch:type="MSShapeGroup" transform="translate(802.471231, 250.401347) rotate(-273.000000) translate(-802.471231, -250.401347) "></path>
            <path d="M939.537827,244.944572 L810.476506,257.944572 L705.273146,257.944572 L606.537827,252.227022" id="Path-5" stroke="#00526E" stroke-width="5" sketch:type="MSShapeGroup" transform="translate(773.037827, 252.444572) rotate(-273.000000) translate(-773.037827, -252.444572) "></path>
            <path d="M921.297727,240.624957 L764.859694,267.624957 L654.085271,267.624957 L541.086689,255.750046" id="Path-6" stroke="#00526E" stroke-width="5" sketch:type="MSShapeGroup" transform="translate(731.068254, 254.124957) rotate(-273.000000) translate(-731.068254, -254.124957) "></path>
            <text id="Chrysalis" sketch:type="MSTextLayer" font-family="Raleway" font-size="120" font-weight="260" fill="#008CBA">
                <tspan x="141" y="232">Chrysalis</tspan>
            </text>
        </g>
    </g>
</svg>